<svg width="20" height="20" viewBox="0 0 20 20" fill="none" xmlns="http://www.w3.org/2000/svg">
<path d="M4.0625 19.3755H2.8125C2.56386 19.3755 2.3254 19.2767 2.14959 19.1009C1.97377 18.9251 1.875 18.6866 1.875 18.438V12.813C1.875 12.5643 1.97377 12.3259 2.14959 12.1501C2.3254 11.9743 2.56386 11.8755 2.8125 11.8755H4.0625C4.31114 11.8755 4.5496 11.9743 4.72541 12.1501C4.90123 12.3259 5 12.5643 5 12.813V18.438C5 18.6866 4.90123 18.9251 4.72541 19.1009C4.5496 19.2767 4.31114 19.3755 4.0625 19.3755Z" fill="#4FD1C5"/>
<path d="M12.8125 19.3744H11.5625C11.3139 19.3744 11.0754 19.2756 10.8996 19.0998C10.7238 18.924 10.625 18.6856 10.625 18.4369V9.06192C10.625 8.81328 10.7238 8.57482 10.8996 8.39901C11.0754 8.22319 11.3139 8.12442 11.5625 8.12442H12.8125C13.0611 8.12442 13.2996 8.22319 13.4754 8.39901C13.6512 8.57482 13.75 8.81328 13.75 9.06192V18.4369C13.75 18.6856 13.6512 18.924 13.4754 19.0998C13.2996 19.2756 13.0611 19.3744 12.8125 19.3744Z" fill="#4FD1C5"/>
<path d="M17.1875 19.3749H15.9375C15.6889 19.3749 15.4504 19.2761 15.2746 19.1003C15.0988 18.9245 15 18.686 15 18.4374V4.68741C15 4.43877 15.0988 4.20031 15.2746 4.0245C15.4504 3.84868 15.6889 3.74991 15.9375 3.74991H17.1875C17.4361 3.74991 17.6746 3.84868 17.8504 4.0245C18.0262 4.20031 18.125 4.43877 18.125 4.68741V18.4374C18.125 18.686 18.0262 18.9245 17.8504 19.1003C17.6746 19.2761 17.4361 19.3749 17.1875 19.3749Z" fill="#4FD1C5"/>
<path d="M8.4375 19.3747H7.1875C6.93886 19.3747 6.7004 19.2759 6.52459 19.1001C6.34877 18.9243 6.25 18.6858 6.25 18.4372V1.56216C6.25 1.31352 6.34877 1.07507 6.52459 0.899252C6.7004 0.723436 6.93886 0.624664 7.1875 0.624664H8.4375C8.68614 0.624664 8.9246 0.723436 9.10041 0.899252C9.27623 1.07507 9.375 1.31352 9.375 1.56216V18.4372C9.375 18.6858 9.27623 18.9243 9.10041 19.1001C8.9246 19.2759 8.68614 19.3747 8.4375 19.3747Z" fill="#4FD1C5"/>
</svg>
