<svg width="20" height="20" viewBox="0 0 20 20" fill="none" xmlns="http://www.w3.org/2000/svg">
<path d="M18.5188 4.10138C18.8441 4.38831 19.1149 4.74414 19.3118 5.14925C19.374 5.27744 19.3274 5.43264 19.2126 5.5087L12.3753 10.0399C10.9089 11.0117 9.05987 11.0321 7.57508 10.0928L0.692091 5.73869C0.580889 5.66834 0.529846 5.52354 0.579961 5.39609C0.779219 4.88937 1.08975 4.44751 1.47823 4.10402L1.47786 4.10054L1.49124 4.09258C1.77871 3.84115 2.10829 3.64332 2.46663 3.51248L6.95125 0.845271C8.84623 -0.281756 11.1504 -0.281757 13.0454 0.84527L17.5248 3.50935C17.8894 3.64122 18.2244 3.84238 18.5158 4.09877L18.5188 4.10138Z" fill="#4FD1C5"/>
<path d="M0.167189 7.91825C0.187027 7.70769 0.404175 7.59184 0.57436 7.6995L6.7424 11.6014C8.75124 12.8721 11.2529 12.8445 13.2368 11.5297L19.3961 7.44792C19.5655 7.33565 19.7863 7.44937 19.8077 7.66141C20.1133 10.684 20.0546 13.7381 19.6318 16.7485C19.4152 18.2906 18.2395 19.4729 16.7883 19.6079L15.1404 19.7613C11.7199 20.0796 8.28009 20.0796 4.85963 19.7613L3.21169 19.6079C1.76048 19.4729 0.584835 18.2906 0.368221 16.7485C-0.0426718 13.8234 -0.109682 10.8569 0.167189 7.91825Z" fill="#4FD1C5"/>
</svg>
