<svg width="23" height="23" viewBox="0 0 23 23" fill="none" xmlns="http://www.w3.org/2000/svg">
<path d="M4.44668 4.81816H18.5092C18.6734 4.81809 18.8375 4.82851 19.0005 4.84937C18.9453 4.46167 18.8121 4.08917 18.609 3.75433C18.4059 3.41949 18.1371 3.12925 17.8188 2.9011C17.5006 2.67294 17.1394 2.51161 16.757 2.42683C16.3747 2.34204 15.9792 2.33556 15.5943 2.40776L4.0292 4.38223H4.01602C3.29007 4.52105 2.64451 4.93178 2.21118 5.53052C2.86403 5.06616 3.64553 4.81713 4.44668 4.81816Z" fill="white"/>
<path d="M18.5093 5.87482H4.44684C3.70117 5.87563 2.98627 6.17221 2.459 6.69948C1.93173 7.22675 1.63515 7.94164 1.63434 8.68732V17.1248C1.63515 17.8705 1.93173 18.5854 2.459 19.1126C2.98627 19.6399 3.70117 19.9365 4.44684 19.9373H18.5093C19.255 19.9365 19.9699 19.6399 20.4972 19.1126C21.0244 18.5854 21.321 17.8705 21.3218 17.1248V8.68732C21.321 7.94164 21.0244 7.22675 20.4972 6.69948C19.9699 6.17221 19.255 5.87563 18.5093 5.87482ZM16.4219 14.3123C16.1438 14.3123 15.8719 14.2298 15.6407 14.0753C15.4094 13.9208 15.2292 13.7012 15.1227 13.4442C15.0163 13.1873 14.9884 12.9045 15.0427 12.6317C15.097 12.3589 15.2309 12.1084 15.4276 11.9117C15.6242 11.715 15.8748 11.5811 16.1476 11.5268C16.4204 11.4726 16.7031 11.5004 16.9601 11.6069C17.217 11.7133 17.4367 11.8935 17.5912 12.1248C17.7457 12.356 17.8282 12.6279 17.8282 12.9061C17.8282 13.279 17.68 13.6367 17.4163 13.9004C17.1526 14.1642 16.7949 14.3123 16.4219 14.3123Z" fill="white"/>
<path d="M1.65622 11.6514V7.27881C1.65622 6.32651 2.18356 4.72998 4.01389 4.38413C5.56735 4.09277 7.10544 4.09277 7.10544 4.09277C7.10544 4.09277 8.11618 4.7959 7.28122 4.7959C6.44626 4.7959 6.46823 5.87256 7.28122 5.87256C8.09421 5.87256 7.28122 6.90527 7.28122 6.90527L4.00729 10.6187L1.65622 11.6514Z" fill="white"/>
</svg>
