<svg width="20" height="20" viewBox="0 0 20 20" fill="none" xmlns="http://www.w3.org/2000/svg">
<g clip-path="url(#clip0_20_126)">
<path d="M2.50397 6.43051C5.03182 5.67981 8.33159 6.45691 11.0373 8.69282C13.7854 10.9637 15.1711 14.1201 14.8537 16.77" stroke="#F6AD55" stroke-width="2"/>
<path d="M8.4183 18.1663C7.78277 16.1323 8.34213 13.0113 10.0646 10.0278C11.782 7.05327 14.1959 5.01169 16.2709 4.53711" stroke="#F6AD55" stroke-width="2"/>
<path d="M9.53489 1.66663C9.38456 3.28678 8.76306 5.19146 7.68782 7.05386C6.07629 9.84513 3.87292 11.8012 2.0011 12.3211" stroke="#F6AD55" stroke-width="2"/>
<path d="M10 18.3333C14.6024 18.3333 18.3334 14.6023 18.3334 9.99996C18.3334 5.39759 14.6024 1.66663 10 1.66663C5.39765 1.66663 1.66669 5.39759 1.66669 9.99996C1.66669 14.6023 5.39765 18.3333 10 18.3333Z" stroke="#F6AD55" stroke-width="2" stroke-linecap="square"/>
</g>
<defs>
<clipPath id="clip0_20_126">
<rect width="20" height="20" fill="white"/>
</clipPath>
</defs>
</svg>
