<svg width="20" height="20" viewBox="0 0 20 20" fill="none" xmlns="http://www.w3.org/2000/svg">
<g clip-path="url(#clip0_8_446)">
<path d="M18 9.35L14.1666 6.26667V4.16667C14.1871 3.74578 14.0397 3.33398 13.757 3.02156C13.4742 2.70913 13.0791 2.52157 12.6583 2.5H3.15832C2.74046 2.5258 2.34959 2.71519 2.07038 3.02715C1.79118 3.33911 1.64613 3.74851 1.66665 4.16667V12.5C1.65891 12.8309 1.74989 13.1567 1.92799 13.4357C2.10609 13.7147 2.36323 13.9344 2.66665 14.0667C2.51318 14.4421 2.45336 14.8493 2.49237 15.253C2.53138 15.6567 2.66803 16.0449 2.89054 16.384C3.11305 16.7232 3.41474 17.0031 3.76957 17.1996C4.12439 17.3961 4.52171 17.5033 4.92723 17.512C5.33274 17.5207 5.73429 17.4306 6.09721 17.2495C6.46013 17.0683 6.77352 16.8016 7.01036 16.4723C7.24719 16.143 7.40035 15.7611 7.45661 15.3594C7.51288 14.9577 7.47056 14.5484 7.33332 14.1667H12.6333C12.4963 14.5443 12.4522 14.9494 12.5049 15.3476C12.5576 15.7458 12.7055 16.1255 12.9361 16.4545C13.1666 16.7834 13.4731 17.052 13.8294 17.2374C14.1858 17.4228 14.5816 17.5196 14.9833 17.5196C15.385 17.5196 15.7808 17.4228 16.1372 17.2374C16.4936 17.052 16.8 16.7834 17.0306 16.4545C17.2611 16.1255 17.409 15.7458 17.4617 15.3476C17.5144 14.9494 17.4704 14.5443 17.3333 14.1667H17.5C17.721 14.1667 17.933 14.0789 18.0892 13.9226C18.2455 13.7663 18.3333 13.5543 18.3333 13.3333V10C18.3308 9.87346 18.2994 9.74915 18.2417 9.63653C18.1839 9.5239 18.1013 9.42592 18 9.35ZM16.6666 10.4V12.5H14.1666V8.4L16.6666 10.4ZM5.83332 15C5.83332 15.1648 5.78444 15.3259 5.69287 15.463C5.60131 15.6 5.47116 15.7068 5.31889 15.7699C5.16661 15.833 4.99906 15.8495 4.83741 15.8173C4.67576 15.7852 4.52727 15.7058 4.41073 15.5893C4.29418 15.4727 4.21482 15.3242 4.18266 15.1626C4.15051 15.0009 4.16701 14.8334 4.23008 14.6811C4.29316 14.5288 4.39997 14.3987 4.53701 14.3071C4.67405 14.2155 4.83517 14.1667 4.99998 14.1667C5.221 14.1667 5.43296 14.2545 5.58924 14.4107C5.74552 14.567 5.83332 14.779 5.83332 15ZM9.99998 12.5H3.33332V4.16667H12.5V12.5H9.99998ZM15.8333 15C15.8333 15.1648 15.7844 15.3259 15.6929 15.463C15.6013 15.6 15.4712 15.7068 15.3189 15.7699C15.1666 15.833 14.9991 15.8495 14.8374 15.8173C14.6758 15.7852 14.5273 15.7058 14.4107 15.5893C14.2942 15.4727 14.2148 15.3242 14.1827 15.1626C14.1505 15.0009 14.167 14.8334 14.2301 14.6811C14.2932 14.5288 14.4 14.3987 14.537 14.3071C14.674 14.2155 14.8352 14.1667 15 14.1667C15.221 14.1667 15.433 14.2545 15.5892 14.4107C15.7455 14.567 15.8333 14.779 15.8333 15Z" fill="#9F7AEA"/>
</g>
<defs>
<clipPath id="clip0_8_446">
<rect width="20" height="20" fill="white"/>
</clipPath>
</defs>
</svg>
