<svg width="20" height="20" viewBox="0 0 20 20" fill="none" xmlns="http://www.w3.org/2000/svg">
<path d="M7.99166 3.82503C8.18524 3.63029 8.42395 3.4864 8.68655 3.40614C8.94915 3.32589 9.22751 3.31176 9.49689 3.36502C9.76626 3.41827 10.0183 3.53726 10.2306 3.7114C10.4429 3.88554 10.6089 4.10943 10.7138 4.36319C10.8188 4.61694 10.8594 4.89269 10.832 5.16591C10.8047 5.43914 10.7103 5.70138 10.5572 5.92933C10.4041 6.15727 10.197 6.34386 9.95445 6.4725C9.71186 6.60114 9.44124 6.66785 9.16666 6.66669H1.66666M10.4917 16.175C10.6852 16.3698 10.9239 16.5137 11.1865 16.5939C11.4492 16.6742 11.7275 16.6883 11.9969 16.635C12.2663 16.5818 12.5183 16.4628 12.7306 16.2887C12.9429 16.1145 13.1089 15.8906 13.2138 15.6369C13.3188 15.3831 13.3594 15.1074 13.332 14.8341C13.3047 14.5609 13.2103 14.2987 13.0572 14.0707C12.9041 13.8428 12.697 13.6562 12.4545 13.5276C12.2119 13.3989 11.9412 13.3322 11.6667 13.3334H1.66666M14.775 6.44169C15.0174 6.19993 15.3156 6.02162 15.6433 5.92254C15.9709 5.82345 16.318 5.80664 16.6537 5.8736C16.9895 5.94055 17.3035 6.08921 17.5681 6.30642C17.8327 6.52363 18.0397 6.80269 18.1708 7.11894C18.3019 7.43518 18.353 7.77885 18.3197 8.11956C18.2864 8.46027 18.1696 8.78752 17.9797 9.07236C17.7898 9.3572 17.5326 9.59085 17.2309 9.75265C16.9292 9.91445 16.5923 9.99941 16.25 10H1.66666" stroke="#4299E1" stroke-width="1.66667" stroke-linecap="round" stroke-linejoin="round"/>
</svg>
