<svg width="32" height="32" viewBox="0 0 32 32" fill="none" xmlns="http://www.w3.org/2000/svg">
<path d="M1.99988 23.4991C1.99988 24.4273 2.36863 25.3176 3.025 25.974C3.68138 26.6303 4.57162 26.9991 5.49988 26.9991H26.4999C27.4281 26.9991 28.3184 26.6303 28.9747 25.974C29.6311 25.3176 29.9999 24.4273 29.9999 23.4991V13.8741H1.99988V23.4991ZM6.12488 18.7491C6.12488 18.2518 6.32242 17.7749 6.67405 17.4233C7.02568 17.0716 7.50259 16.8741 7.99988 16.8741H10.9999C11.4972 16.8741 11.9741 17.0716 12.3257 17.4233C12.6773 17.7749 12.8749 18.2518 12.8749 18.7491V19.9991C12.8749 20.4964 12.6773 20.9733 12.3257 21.3249C11.9741 21.6765 11.4972 21.8741 10.9999 21.8741H7.99988C7.50259 21.8741 7.02568 21.6765 6.67405 21.3249C6.32242 20.9733 6.12488 20.4964 6.12488 19.9991V18.7491Z" fill="#4FD1C5"/>
<path d="M26.4999 4.99829H5.49988C4.57162 4.99829 3.68138 5.36704 3.025 6.02342C2.36863 6.67979 1.99988 7.57003 1.99988 8.49829V10.1233H29.9999V8.49829C29.9999 7.57003 29.6311 6.67979 28.9747 6.02342C28.3184 5.36704 27.4281 4.99829 26.4999 4.99829Z" fill="#4FD1C5"/>
</svg>
