<svg width="20" height="20" viewBox="0 0 20 20" fill="none" xmlns="http://www.w3.org/2000/svg">
<g clip-path="url(#clip0_8_431)">
<path d="M11.9417 16.6666H11.7667C11.414 16.6316 11.0816 16.4851 10.8179 16.2483C10.5541 16.0115 10.3727 15.6968 10.3 15.3499L8.06669 4.99994L5.76669 10.3333C5.70163 10.4823 5.59438 10.6091 5.45815 10.698C5.32191 10.7868 5.16266 10.8338 5.00002 10.8333H2.50002C2.27901 10.8333 2.06704 10.7455 1.91076 10.5892C1.75448 10.4329 1.66669 10.221 1.66669 9.99994C1.66669 9.77893 1.75448 9.56697 1.91076 9.41069C2.06704 9.25441 2.27901 9.16661 2.50002 9.16661H4.45002L6.54169 4.34161C6.68249 4.01783 6.92248 3.74713 7.22705 3.56854C7.53163 3.38995 7.88505 3.31269 8.23636 3.34792C8.58767 3.38314 8.91872 3.52902 9.18178 3.76452C9.44483 4.00003 9.6263 4.31299 9.70002 4.65828L11.9334 14.9999L14.2334 9.68328C14.2959 9.53109 14.402 9.40082 14.5385 9.30888C14.6749 9.21693 14.8355 9.16743 15 9.16661H17.5C17.721 9.16661 17.933 9.25441 18.0893 9.41069C18.2456 9.56697 18.3334 9.77893 18.3334 9.99994C18.3334 10.221 18.2456 10.4329 18.0893 10.5892C17.933 10.7455 17.721 10.8333 17.5 10.8333H15.55L13.4584 15.6583C13.3306 15.9554 13.1192 16.2089 12.8499 16.3879C12.5806 16.567 12.2651 16.6638 11.9417 16.6666Z" fill="#470137"/>
</g>
<defs>
<clipPath id="clip0_8_431">
<rect width="20" height="20" fill="white"/>
</clipPath>
</defs>
</svg>
