<svg width="23" height="23" viewBox="0 0 23 23" fill="none" xmlns="http://www.w3.org/2000/svg">
<path d="M7.98425 19.9374C8.7609 19.9374 9.3905 19.3078 9.3905 18.5311C9.3905 17.7545 8.7609 17.1249 7.98425 17.1249C7.2076 17.1249 6.578 17.7545 6.578 18.5311C6.578 19.3078 7.2076 19.9374 7.98425 19.9374Z" fill="white"/>
<path d="M17.8281 19.9374C18.6047 19.9374 19.2343 19.3078 19.2343 18.5311C19.2343 17.7545 18.6047 17.1249 17.8281 17.1249C17.0514 17.1249 16.4218 17.7545 16.4218 18.5311C16.4218 19.3078 17.0514 19.9374 17.8281 19.9374Z" fill="white"/>
<path d="M20.3241 5.55793C20.2253 5.4371 20.1009 5.33978 19.9598 5.27305C19.8187 5.20631 19.6645 5.17182 19.5085 5.17209H6.13371L5.86433 3.64367C5.83561 3.48087 5.75043 3.33339 5.62377 3.22714C5.49712 3.1209 5.33707 3.06268 5.17175 3.06271H2.35925C2.17277 3.06271 1.99393 3.13679 1.86207 3.26865C1.73021 3.40052 1.65613 3.57936 1.65613 3.76584C1.65613 3.95232 1.73021 4.13116 1.86207 4.26302C1.99393 4.39488 2.17277 4.46896 2.35925 4.46896H4.58201L6.58855 15.8411C6.61727 16.0039 6.70244 16.1514 6.8291 16.2577C6.95576 16.3639 7.11581 16.4221 7.28113 16.4221H18.5311C18.7176 16.4221 18.8964 16.348 19.0283 16.2161C19.1602 16.0843 19.2342 15.9054 19.2342 15.719C19.2342 15.5325 19.1602 15.3536 19.0283 15.2218C18.8964 15.0899 18.7176 15.0158 18.5311 15.0158H7.87087L7.62302 13.6096H18.2428C18.4867 13.6093 18.7229 13.5247 18.9116 13.3703C19.1003 13.2158 19.2298 13.0009 19.2782 12.7619L20.5438 6.43376C20.5743 6.28061 20.5704 6.1226 20.5324 5.97114C20.4944 5.81968 20.4233 5.67854 20.3241 5.55793Z" fill="white"/>
</svg>
