<svg width="20" height="20" viewBox="0 0 20 20" fill="none" xmlns="http://www.w3.org/2000/svg">
<path d="M16.7187 8.7502H11.25C10.7527 8.7502 10.2758 8.55266 9.92417 8.20103C9.57254 7.8494 9.375 7.37248 9.375 6.8752V1.40645C9.375 1.36501 9.35854 1.32527 9.32924 1.29597C9.29993 1.26667 9.26019 1.2502 9.21875 1.2502H5.625C4.96196 1.2502 4.32607 1.5136 3.85723 1.98244C3.38839 2.45128 3.125 3.08716 3.125 3.7502V16.2502C3.125 16.9132 3.38839 17.5491 3.85723 18.018C4.32607 18.4868 4.96196 18.7502 5.625 18.7502H14.375C15.038 18.7502 15.6739 18.4868 16.1428 18.018C16.6116 17.5491 16.875 16.9132 16.875 16.2502V8.90645C16.875 8.86501 16.8585 8.82527 16.8292 8.79597C16.7999 8.76666 16.7602 8.7502 16.7187 8.7502Z" fill="#4FD1C5"/>
<path d="M16.3758 7.36798L10.7582 1.7504C10.7473 1.73954 10.7334 1.73215 10.7183 1.72916C10.7032 1.72618 10.6875 1.72772 10.6733 1.73361C10.659 1.73949 10.6469 1.74946 10.6383 1.76225C10.6297 1.77503 10.6251 1.79007 10.625 1.80548V6.87618C10.625 7.04194 10.6908 7.20091 10.8081 7.31812C10.9253 7.43533 11.0842 7.50118 11.25 7.50118H16.3207C16.3361 7.50112 16.3511 7.4965 16.3639 7.48791C16.3767 7.47932 16.3867 7.46714 16.3926 7.45291C16.3985 7.43867 16.4 7.42302 16.397 7.4079C16.394 7.39279 16.3866 7.3789 16.3758 7.36798Z" fill="#4FD1C5"/>
</svg>
