<svg width="20" height="20" viewBox="0 0 20 20" fill="none" xmlns="http://www.w3.org/2000/svg">
<path d="M10.2172 3.95668C10.159 3.90105 10.0817 3.87 10.0012 3.87C9.92069 3.87 9.84331 3.90105 9.78515 3.95668L2.59375 10.8266C2.56321 10.8558 2.53891 10.8909 2.52233 10.9298C2.50574 10.9687 2.49722 11.0105 2.49727 11.0528L2.49609 17.5004C2.49609 17.8319 2.62779 18.1499 2.86221 18.3843C3.09663 18.6187 3.41457 18.7504 3.74609 18.7504H7.5C7.66576 18.7504 7.82473 18.6846 7.94194 18.5674C8.05915 18.4502 8.125 18.2912 8.125 18.1254V12.8129C8.125 12.73 8.15792 12.6506 8.21653 12.592C8.27513 12.5333 8.35462 12.5004 8.4375 12.5004H11.5625C11.6454 12.5004 11.7249 12.5333 11.7835 12.592C11.8421 12.6506 11.875 12.73 11.875 12.8129V18.1254C11.875 18.2912 11.9408 18.4502 12.0581 18.5674C12.1753 18.6846 12.3342 18.7504 12.5 18.7504H16.2523C16.5839 18.7504 16.9018 18.6187 17.1362 18.3843C17.3706 18.1499 17.5023 17.8319 17.5023 17.5004V11.0528C17.5024 11.0105 17.4939 10.9687 17.4773 10.9298C17.4607 10.8909 17.4364 10.8558 17.4059 10.8266L10.2172 3.95668Z" fill="white"/>
<path d="M19.1767 9.53827L16.2548 6.74296V2.50116C16.2548 2.3354 16.1889 2.17643 16.0717 2.05922C15.9545 1.94201 15.7956 1.87616 15.6298 1.87616H13.7548C13.589 1.87616 13.4301 1.94201 13.3129 2.05922C13.1956 2.17643 13.1298 2.3354 13.1298 2.50116V3.75116L10.8673 1.58788C10.6556 1.37382 10.3407 1.25116 10.0005 1.25116C9.66144 1.25116 9.34737 1.37382 9.13566 1.58827L0.827066 9.53749C0.584097 9.77186 0.553628 10.1574 0.774722 10.4113C0.830242 10.4754 0.898222 10.5275 0.974526 10.5645C1.05083 10.6015 1.13386 10.6226 1.21857 10.6264C1.30327 10.6303 1.38788 10.6169 1.46724 10.587C1.5466 10.5572 1.61905 10.5115 1.68019 10.4527L9.78566 2.70741C9.84381 2.65178 9.92119 2.62073 10.0017 2.62073C10.0822 2.62073 10.1595 2.65178 10.2177 2.70741L18.3239 10.4527C18.4433 10.5672 18.6033 10.6297 18.7687 10.6265C18.9341 10.6233 19.0915 10.5546 19.2064 10.4355C19.4462 10.1871 19.4263 9.77694 19.1767 9.53827Z" fill="white"/>
</svg>
