<svg width="20" height="20" viewBox="0 0 20 20" fill="none" xmlns="http://www.w3.org/2000/svg">
<path d="M18.6578 1.49542C18.6507 1.46087 18.6338 1.42908 18.6093 1.40375C18.5847 1.37843 18.5534 1.36064 18.5191 1.35245C16.2312 0.793078 10.9449 2.78644 8.08085 5.64933C7.57002 6.15603 7.10432 6.70628 6.68905 7.29386C5.80585 7.21573 4.92264 7.28097 4.16991 7.60909C2.04608 8.54386 1.42772 10.9829 1.25546 12.0321C1.24569 12.0896 1.24937 12.1485 1.26622 12.2042C1.28308 12.26 1.31264 12.3111 1.35258 12.3535C1.39252 12.3959 1.44176 12.4285 1.49641 12.4486C1.55107 12.4688 1.60966 12.476 1.66757 12.4696L5.07811 12.0935C5.08055 12.3506 5.09606 12.6074 5.1246 12.863C5.14176 13.0405 5.22054 13.2063 5.34725 13.3317L6.66795 14.6493C6.7935 14.7759 6.95929 14.8546 7.1367 14.872C7.39083 14.9004 7.64624 14.9159 7.90194 14.9185L7.52772 18.3247C7.52148 18.3826 7.52873 18.4412 7.54891 18.4958C7.56909 18.5504 7.60165 18.5996 7.64404 18.6395C7.68642 18.6794 7.73748 18.709 7.7932 18.7259C7.84893 18.7428 7.90781 18.7465 7.96522 18.7368C9.01249 18.5689 11.4558 17.9505 12.3851 15.8267C12.7133 15.0739 12.7805 14.195 12.7047 13.3161C13.2937 12.9008 13.8454 12.435 14.3535 11.9239C17.2265 9.06534 19.2086 3.89698 18.6578 1.49542ZM11.4871 8.51378C11.2247 8.2516 11.0461 7.91751 10.9736 7.55376C10.9012 7.19002 10.9382 6.81295 11.0801 6.47027C11.222 6.12759 11.4623 5.83468 11.7707 5.6286C12.079 5.42252 12.4416 5.31252 12.8125 5.31252C13.1834 5.31252 13.5459 5.42252 13.8543 5.6286C14.1627 5.83468 14.403 6.12759 14.5449 6.47027C14.6868 6.81295 14.7238 7.19002 14.6514 7.55376C14.5789 7.91751 14.4002 8.2516 14.1379 8.51378C13.9639 8.68799 13.7573 8.8262 13.5299 8.92049C13.3025 9.01479 13.0587 9.06333 12.8125 9.06333C12.5663 9.06333 12.3225 9.01479 12.0951 8.92049C11.8677 8.8262 11.6611 8.68799 11.4871 8.51378Z" fill="#4FD1C5"/>
<path d="M6.57812 15.6037C6.36406 15.8182 6.0207 15.9018 5.60742 15.9732C4.67891 16.1314 3.85898 15.3291 4.02578 14.3904C4.08945 14.0346 4.27773 13.5357 4.39492 13.4185C4.42054 13.3934 4.43758 13.3609 4.44365 13.3255C4.44971 13.2902 4.44448 13.2538 4.42869 13.2216C4.41291 13.1894 4.38737 13.1629 4.35572 13.146C4.32406 13.1292 4.28789 13.1227 4.25234 13.1275C3.73311 13.1911 3.25005 13.4265 2.88008 13.7963C1.96172 14.7154 1.875 18.126 1.875 18.126C1.875 18.126 5.2875 18.0392 6.20586 17.1201C6.57682 16.7504 6.81252 16.2666 6.875 15.7467C6.88945 15.5834 6.69062 15.4861 6.57812 15.6037Z" fill="#4FD1C5"/>
</svg>
