<svg width="21" height="20" viewBox="0 0 21 20" fill="none" xmlns="http://www.w3.org/2000/svg">
<path d="M13.1729 3.06737C12.4127 2.30649 11.351 1.88747 10.1791 1.88747C9.00099 1.88747 7.93576 2.30395 7.17911 3.06013C6.41427 3.82464 6.04161 4.86366 6.12911 5.98561C6.30255 8.1991 8.11935 9.99973 10.1791 9.99973C12.2389 9.99973 14.0526 8.19946 14.2287 5.98634C14.3174 4.87452 13.9424 3.83767 13.1729 3.06737Z" fill="#4FD1C5"/>
<path d="M17.0542 18.1112H3.30418C3.1242 18.1133 2.94597 18.0783 2.78245 18.0086C2.61892 17.9388 2.47422 17.8362 2.35887 17.7081C2.10496 17.4267 2.00262 17.0425 2.0784 16.6539C2.40808 14.9583 3.43699 13.5339 5.05418 12.534C6.4909 11.6464 8.31082 11.1578 10.1792 11.1578C12.0475 11.1578 13.8675 11.6467 15.3042 12.534C16.9214 13.5335 17.9503 14.9579 18.28 16.6535C18.3557 17.0421 18.2534 17.4263 17.9995 17.7077C17.8842 17.8359 17.7395 17.9386 17.576 18.0084C17.4124 18.0782 17.2342 18.1133 17.0542 18.1112Z" fill="#4FD1C5"/>
</svg>
